<svg enable-background="new 0 0 512 512" viewBox="0 0 512 512" xmlns="http://www.w3.org/2000/svg">
    <g id="_x35_0_x2C__Bubble_x2C__chat_x2C__message_x2C__text_x2C__communication">
        <g id="XMLID_2485_">
            <path id="XMLID_746_" d="m491 139.2c0 35.29-14.84 67.11-38.62 89.58l27.52 33.63h-104.22c-42.22-44.229-97.416-91.329-130.83-131.02 4.03-64.4 57.53-115.39 122.95-115.39 68.04 0 123.2 55.16 123.2 123.2z" fill="#25d9f8"></path>

            <path id="XMLID_2501_" d="m381 306c0 96.736-77.267 179.98-181.64 179.98l.02.02h-162.16l40.2-49.14c-34.74-32.81-56.42-79.3-56.42-130.86 0-99.41 80.59-180 180-180 99.453 0 180 80.638 180 180z" fill="#7fe881"></path>

            <g fill="#ececf1">
                <circle id="XMLID_744_" cx="296.19" cy="306" r="25.96"></circle>
                <circle id="XMLID_743_" cx="201" cy="306" r="25.96"></circle>
                <circle id="XMLID_742_" cx="105.81" cy="306" r="25.96"></circle>
            </g>

            <path id="XMLID_741_" d="m461 326c5.52 0 10 4.48 10 10s-4.48 10-10 10-10-4.48-10-10 4.48-10 10-10z" fill="#7fe881"></path>

            <path id="XMLID_740_" d="m440.96 459.83c.64 8.26-5.53 15.48-13.79 16.12-8.26.65-15.48-5.52-16.12-13.78-.65-8.26 5.52-15.48 13.78-16.12 8.26-.65 15.48 5.52 16.13 13.78z" fill="#25d9f8"></path>

            <path id="XMLID_739_" d="m331 476c5.52 0 10 4.48 10 10s-4.48 10-10 10-10-4.48-10-10 4.48-10 10-10z" fill="#ececf1"></path>

            <path id="XMLID_738_" d="m170.95 49.83c.65 8.26-5.52 15.48-13.78 16.12-8.26.65-15.48-5.52-16.12-13.78-.65-8.26 5.52-15.48 13.78-16.12 8.26-.65 15.48 5.52 16.12 13.78z" fill="#25d9f8"></path>
            
            <path id="XMLID_737_" d="m51 86c5.52 0 10 4.48 10 10s-4.48 10-10 10-10-4.48-10-10 4.48-10 10-10z" fill="#7fe881"></path>
        </g>
    </g>
</svg>